<svg width="19.000000" height="13.571533" viewBox="0 0 19 13.5715" fill="none" xmlns="http://www.w3.org/2000/svg" xmlns:xlink="http://www.w3.org/1999/xlink">
	<desc>
			Created with Pixso.
	</desc>
	<defs/>
	<path id="path" d="M17.6429 0L1.35714 0C0.982376 0 0.662498 0.132568 0.397499 0.397461C0.1325 0.662598 0 0.982422 0 1.35718L0 12.2144C0 12.5891 0.1325 12.9089 0.397499 13.1738C0.662498 13.439 0.982376 13.5715 1.35714 13.5715L17.6429 13.5715C18.0176 13.5715 18.3375 13.439 18.6025 13.1738C18.8675 12.9089 19 12.5891 19 12.2144L19 1.35718C19 0.982422 18.8675 0.662598 18.6025 0.397461C18.3375 0.132568 18.0176 0 17.6429 0ZM5.42857 9.5C5.24113 9.50024 5.0811 9.43408 4.94848 9.30151L2.91277 7.26587C2.59302 6.9458 2.5931 6.62573 2.913 6.30591C3.2329 5.98584 3.55289 5.98584 3.87295 6.30566L5.42857 7.86206L9.69848 3.59131C10.0185 3.27124 10.3386 3.27124 10.6587 3.59131C10.9787 3.91138 10.9787 4.23145 10.6587 4.55151L5.90866 9.30151C5.77605 9.43408 5.61601 9.50024 5.42857 9.5ZM16.7658 4.55151L12.0158 9.30151C11.6957 9.62183 11.3757 9.62183 11.0556 9.30151L9.69848 7.94434C9.37891 7.62427 9.37904 7.30444 9.69885 6.98462C10.0187 6.66479 10.3386 6.66455 10.6587 6.98413L11.5357 7.86206L15.8056 3.59131C16.1257 3.27173 16.4456 3.27197 16.7654 3.5918C17.0852 3.91162 17.0854 4.23145 16.7658 4.55151Z" fill-rule="nonzero" fill="#555555"/>
</svg>
