<?xml version="1.0" encoding="UTF-8"?>
<svg width="17px" height="20px" viewBox="0 0 17 20" version="1.1" xmlns="http://www.w3.org/2000/svg" xmlns:xlink="http://www.w3.org/1999/xlink">
    <!-- Generator: Sketch 63.1 (92452) - https://sketch.com -->
    <title>验证码</title>
    <desc>Created with Sketch.</desc>
    <g id="页面-1" stroke="none" stroke-width="1" fill="none" fill-rule="evenodd">
        <g id="登录" transform="translate(-1339.000000, -613.000000)" fill="#A0A7B3" fill-rule="nonzero">
            <g id="验证码-2" transform="translate(1339.000000, 613.000000)">
                <g id="验证码">
                    <path d="M8.3984375,2.5703125 C9.08789062,3.15039062 10.0566406,3.73046875 11.4003906,4.15234375 C12.65625,4.546875 13.8808594,4.75585938 15.0390625,4.77539062 L15.0390625,11.46875 C15.0390625,12.3847656 14.6308594,13.2753906 13.7910156,14.1933594 C12.9765625,15.0820313 11.9609375,15.7734375 11.21875,16.2792969 L11.1796875,16.3066406 C11.03125,16.4082031 10.875,16.5 10.7128906,16.5800781 L8.3984375,17.7421875 L6.08203125,16.5800781 C5.921875,16.5 5.765625,16.4082031 5.61523438,16.3066406 L5.57617188,16.2792969 C4.83398438,15.7753906 3.81835938,15.0839844 3.00390625,14.1933594 C2.1640625,13.2753906 1.75585938,12.3847656 1.75585938,11.46875 L1.75585938,4.77734375 C2.91601562,4.7578125 4.13867188,4.54882812 5.39453125,4.15429688 C6.74023438,3.73046875 7.70898438,3.15039062 8.3984375,2.5703125 M8.3984375,0.00390625 C8.33007812,0.00390625 8.26171875,0.0390625 8.22265625,0.107421875 C7.89648437,0.6953125 7.0234375,1.80078125 4.86914062,2.4765625 C3.51367187,2.90234375 2.40234375,3.01953125 1.58398437,3.01953125 C0.955078125,3.01953125 0.498046875,2.94921875 0.2421875,2.89648438 C0.228515625,2.89257813 0.21484375,2.89257813 0.201171875,2.89257813 C0.091796875,2.89257813 0,2.98046875 0,3.09375 L0,11.4707031 C0,14.6386719 3.08007812,16.7050781 4.62890625,17.7597656 C4.84179687,17.9042969 5.06445312,18.0351562 5.29492188,18.1503906 L8.30859375,19.6621094 C8.33789062,19.6757812 8.3671875,19.6835938 8.3984375,19.6835938 C8.4296875,19.6835938 8.4609375,19.6757812 8.48828125,19.6621094 L11.5019531,18.1503906 C11.7324219,18.0351562 11.9550781,17.9042969 12.1679688,17.7597656 C13.7167969,16.7050781 16.796875,14.6386719 16.796875,11.4707031 L16.796875,3.09375 C16.796875,2.98046875 16.7050781,2.89257813 16.5957031,2.89257813 C16.5820312,2.89257813 16.5683594,2.89453125 16.5546875,2.89648438 C16.2988281,2.95117188 15.8417969,3.01953125 15.2128906,3.01953125 C14.3945312,3.01953125 13.28125,2.90234375 11.9277344,2.4765625 C9.7734375,1.80078125 8.90039062,0.6953125 8.57421875,0.107421875 C8.53515625,0.037109375 8.46679687,0.00390625 8.3984375,0.00390625 Z" id="形状"></path>
                    <path d="M6.53125,10.8144531 L4.90820312,9.19140625 C4.56445312,8.84765625 4.0078125,8.84765625 3.66601562,9.19140625 C3.32226562,9.53515625 3.32226562,10.0917969 3.66601562,10.4335938 L6.53125,13.3007812 C6.875,13.6445313 7.43164063,13.6445313 7.7734375,13.3007812 L13.1308594,7.94335938 C13.4746094,7.59960938 13.4746094,7.04296875 13.1308594,6.70117188 C12.7871094,6.35742187 12.2304688,6.35742187 11.8886719,6.70117188 L7.7734375,10.8144531 C7.43164063,11.1582031 6.875,11.1582031 6.53125,10.8144531 Z" id="路径"></path>
                </g>
            </g>
        </g>
    </g>
</svg>