<svg width="256.000000" height="135.000000" viewBox="0 0 256 135" fill="none" xmlns="http://www.w3.org/2000/svg" xmlns:xlink="http://www.w3.org/1999/xlink">
	<desc>
			Created with Pixso.
	</desc>
	<defs>
		<clipPath id="clip18_2547">
			<rect id="svg" width="242.360672" height="59.651161" transform="translate(3.147522 0.000000)" fill="white"/>
		</clipPath>
		<clipPath id="clip18_2558">
			<rect id="QQ截图20230808155019" width="256.000000" height="66.976746" transform="translate(0.000000 68.023193)" fill="white"/>
		</clipPath>
	</defs>
	<g clip-path="url(#clip18_2547)">
		<path id="path" d="M228.299 14.6418L195.058 14.6418C195.058 14.6418 191.262 15.0723 189.168 15.4761C185.897 17.5083 185.381 17.5618 185.381 17.5618C185.381 17.5618 187.935 11.1289 193.375 5.4646C200.392 -0.192139 204.736 0.041748 204.736 0.041748L245.13 0.041748L228.299 14.6418ZM200.108 43.0073L241.343 43.0073L222.829 58.8586L193.796 58.8586C193.796 58.8586 167.829 55.9424 168.13 31.7446C169.209 7.54907 192.113 0 192.113 0C192.113 0 179.747 6.96289 179.069 22.1504C179.085 41.386 200.108 43.0073 200.108 43.0073ZM117.217 14.6418C117.217 14.6418 113.421 15.0723 111.326 15.4761C108.056 17.5083 107.539 17.5618 107.539 17.5618C107.539 17.5618 110.093 11.1289 115.534 5.4646C122.55 -0.192139 126.895 0.041748 126.895 0.041748L167.288 0.041748L150.457 14.6418L117.217 14.6418ZM122.266 43.0073L163.501 43.0073L144.987 58.8586L115.955 58.8586C115.955 58.8586 89.9872 55.9424 90.288 31.7446C91.3677 7.54907 114.272 0 114.272 0C114.272 0 101.906 6.96289 101.228 22.1504C101.244 41.386 122.266 43.0073 122.266 43.0073ZM84.8181 40.0874C83.5776 58.5266 62.0967 59.2759 62.0967 59.2759L3.14758 59.2759L14.1296 0L73.4574 0C73.4574 0 88.9508 -0.543457 88.605 12.9731C89.0118 25.4006 75.982 28.8245 75.982 28.8245C75.982 28.8245 85.5014 32.5376 84.8181 40.0874ZM19.5995 46.7615L61.2552 46.7615C61.2552 46.7615 65.7524 46.636 65.8837 40.9216C66.7702 35.9792 62.0967 35.0815 62.0967 35.0815L21.7033 35.0815L19.5995 46.7615ZM66.7252 11.7217L26.3317 11.7217L24.2279 23.4016L64.6213 23.4016C64.6213 23.4016 70.5844 23.6299 70.9329 17.5618C72.0546 12.1179 66.7252 11.7217 66.7252 11.7217Z" fill-rule="evenodd" fill="#FFFFFF"/>
	</g>
	<g clip-path="url(#clip18_2558)">
		<path id="path" d="M105.586 72.8416C105.391 73.3555 105.781 74.512 106.561 75.4756C107.861 77.0818 107.926 77.8528 107.796 92.6936C107.796 101.174 107.926 111.004 108.186 114.409C108.641 120.255 108.576 120.705 107.341 121.476C106.561 121.926 105.976 122.761 106.041 123.275C106.106 124.688 111.372 133.747 112.152 133.747C113.908 133.747 114.493 130.599 114.103 123.275C112.932 99.3752 112.932 94.6853 114.103 89.1602C115.728 81.1294 115.663 77.7244 113.778 75.283C111.567 72.2634 106.366 70.7214 105.586 72.8416Z" fill-rule="nonzero" fill="#FFFFFF"/>
		<path id="path" d="M220.079 75.7329C219.104 77.5959 219.494 78.3027 220.794 77.0178C221.314 76.5039 221.769 76.6323 222.289 77.2747C222.939 78.0457 222.614 79.0093 220.664 82.6072C217.478 88.3894 215.398 91.6016 213.187 94.4285C210.977 97.2554 210.846 98.7329 212.667 101.046C214.422 103.23 215.203 103.166 218.453 100.468C221.314 98.0906 222.029 97.8335 222.679 98.8616C223.134 99.5681 218.323 105.864 214.943 109.077C212.082 111.839 211.822 114.409 214.227 115.951C215.723 116.915 215.983 116.915 218.908 115.116C223.395 112.482 225.605 111.646 226.97 112.032C228.401 112.482 229.116 114.409 228.531 116.336C227.035 121.541 224.76 123.917 222.419 122.633C218.713 120.705 217.023 123.146 220.274 125.652C221.314 126.423 222.939 127.837 223.915 128.736C225.54 130.214 225.865 130.342 227.1 129.507C228.726 128.479 233.212 120.191 233.732 117.236C234.382 114.088 232.692 110.811 229.246 108.37C227.621 107.278 226.255 106.057 226.255 105.736C226.255 105.415 227.165 103.552 228.271 101.624C230.741 97.3196 230.286 95.585 226.45 94.3643C225.085 93.9146 223.72 93.3364 223.395 93.0151C223.069 92.7581 223.72 91.0876 224.89 89.2888C225.995 87.49 226.905 85.8838 226.905 85.6909C226.905 85.5625 227.751 84.085 228.856 82.4146C231.066 78.9451 230.806 77.9814 227.035 75.4116C223.72 73.1631 221.379 73.2915 220.079 75.7329Z" fill-rule="nonzero" fill="#FFFFFF"/>
		<path id="path" d="M201.549 76.3752C201.549 76.6965 201.874 77.7244 202.329 78.6238C202.98 80.1016 202.72 80.7439 199.339 85.5625C197.323 88.4536 194.007 92.9507 192.057 95.585C188.221 100.725 187.766 102.845 189.781 105.35L190.952 106.828L192.772 105.415C194.268 104.258 194.788 104.13 195.568 104.772C196.348 105.479 196.478 106.957 196.153 114.024L195.763 122.504L197.908 124.945C199.079 126.23 200.314 127.194 200.704 126.937C201.029 126.68 201.549 123.532 201.744 119.934C202.264 111.068 202.98 109.077 212.407 90.7021C216.893 81.9004 217.673 79.3948 214.747 83.314C212.667 86.0764 204.8 99.3113 204.8 100.018C204.8 100.339 204.345 100.982 203.825 101.431C203.305 101.881 202.85 102.716 202.85 103.359C202.85 103.937 202.264 104.965 201.549 105.607C200.314 106.699 200.249 106.699 199.859 105.543C199.664 104.836 199.079 103.552 198.559 102.588C198.038 101.688 197.648 100.468 197.648 99.9536C197.648 99.3755 200.249 95.5208 203.5 91.3447C210.326 82.4788 210.586 81.4507 206.751 78.0457C204.28 75.8613 201.549 74.9619 201.549 76.3752Z" fill-rule="nonzero" fill="#FFFFFF"/>
		<path id="path" d="M162.865 79.9731C158.249 84.2776 155.063 85.4341 153.503 83.314C151.357 80.23 148.691 77.6602 147.651 77.6602C146.416 77.6602 141.735 82.0933 141.735 83.2498C141.735 84.3418 143.295 84.6631 145.831 84.085C147.131 83.8279 148.301 83.7637 148.496 83.9563C148.756 84.1492 148.886 86.5261 148.886 89.2246C148.886 94.4927 148.236 95.7776 145.896 95.3279C140.759 94.3 141.149 94.6855 141.54 90.9592C141.865 87.8755 141.735 87.4258 139.849 85.4341C137.639 83.1211 136.078 83.0569 136.403 85.4341C136.728 87.49 136.598 97.9622 136.208 100.789C134.453 114.859 133.608 119.292 132.437 121.219C131.462 122.825 131.332 123.532 131.917 124.11C133.088 125.267 134.713 123.917 136.533 120.191C137.444 118.392 138.354 116.85 138.614 116.85C138.809 116.85 141.149 119.42 143.75 122.633C149.471 129.635 151.487 130.085 151.487 124.496C151.487 123.468 151.877 122.504 152.332 122.376C152.722 122.247 154.608 121.797 156.363 121.412C158.184 120.962 160.979 119.934 162.67 119.099L165.725 117.557L170.147 120.962C177.233 126.423 181.459 128.286 182.24 126.295C183.215 123.789 177.948 117.943 172.032 115.052C170.407 114.216 169.041 113.124 169.041 112.61C169.041 112.096 169.951 110.04 170.992 108.049C173.397 103.68 173.397 102.395 171.317 100.596L169.626 99.1826L173.267 96.4202C175.218 94.8782 176.843 93.272 176.843 92.7581C176.843 92.2441 175.478 91.2805 173.852 90.5095L170.797 89.2246L171.187 86.4619C171.447 84.9844 171.772 82.8643 172.032 81.7078C172.357 80.0374 172.097 79.3948 170.797 78.0457C169.821 77.1462 168.586 76.3752 167.936 76.3752C167.286 76.3752 165.01 77.9814 162.865 79.9731ZM166.571 83.7637C166.051 86.7832 166.376 89.8027 167.416 91.9871C168.001 93.272 168.391 94.6213 168.261 94.9424C168.196 95.3279 165.595 97.2554 162.54 99.3113C157.664 102.588 156.948 103.294 156.688 105.286C156.363 107.342 156.168 107.535 153.893 107.728L151.422 107.92L151.812 103.23C152.462 94.5569 153.568 86.6548 154.283 86.2051C155.323 85.5625 157.403 88.5178 156.753 89.7385C155.908 91.4089 155.323 96.1631 155.778 97.8977C156.298 100.082 158.314 99.9536 159.159 97.7051C159.549 96.7415 160.459 94.3643 161.174 92.4368C162.345 89.4814 162.41 88.582 161.825 87.1045C161.109 85.4341 161.174 85.1128 162.93 83.6995C165.14 81.9004 166.831 81.9648 166.571 83.7637ZM143.685 99.4397C143.685 100.275 141.084 103.359 140.369 103.359C139.589 103.359 139.589 100.339 140.434 98.7974C141.019 97.8335 141.41 97.7051 142.385 98.219C143.1 98.6045 143.685 99.1184 143.685 99.4397ZM148.496 100.725C148.756 101.046 148.691 101.753 148.496 102.331C147.911 103.808 143.815 106.699 142.515 106.443C141.67 106.25 141.995 105.607 144.27 103.166C147.131 100.082 147.846 99.6968 148.496 100.725ZM166.441 104.901C166.441 105.415 165.79 106.892 165.075 108.177C164.1 109.848 163.32 110.426 162.345 110.297C160.199 109.976 160.329 108.627 162.735 106.25C165.14 103.873 166.441 103.423 166.441 104.901ZM147.716 113.959C147.586 116.786 147.261 119.356 146.936 119.613C146.676 119.934 144.66 118.778 142.45 117.107C139.004 114.473 138.484 113.767 138.484 111.904C138.484 109.398 139.784 109.077 141.279 111.197L142.32 112.675L144.14 110.619C147.131 107.278 147.911 107.984 147.716 113.959ZM158.509 112.353C161.434 114.152 160.979 115.501 156.883 117.043C152.917 118.521 151.487 117.943 151.487 114.859C151.487 111.197 154.673 110.04 158.509 112.353Z" fill-rule="nonzero" fill="#FFFFFF"/>
		<path id="path" d="M217.608 78.7524C217.348 78.9451 217.153 79.459 217.153 79.8445C217.153 80.23 217.478 80.1658 217.933 79.7161C218.323 79.3306 218.518 78.8167 218.388 78.6238C218.193 78.4312 217.803 78.4954 217.608 78.7524Z" fill-rule="nonzero" fill="#FFFFFF"/>
		<path id="path" d="M102.205 81.6436C100.124 85.8196 98.824 89.032 98.824 89.8027C98.824 90.9592 97.8488 90.6379 96.2884 88.9675C93.5577 86.1409 89.0717 85.177 89.0717 87.4258C89.0717 87.8755 89.9819 88.7749 91.0222 89.353C92.6475 90.2524 92.9726 90.8308 92.9726 92.9509C92.9726 94.3643 92.5175 96.7415 91.9974 98.219C90.567 102.267 90.7621 104.579 93.1677 109.141C95.5082 113.51 97.0686 115.052 98.1089 113.959C98.434 113.574 99.0841 108.563 99.5392 102.716C100.059 95.4565 100.71 91.2805 101.49 89.5459C104.545 82.6714 105.196 75.6045 102.205 81.6436Z" fill-rule="nonzero" fill="#FFFFFF"/>
		<path id="path" d="M43.2355 80.9368C36.994 82.093 25.6162 84.8557 18.2694 87.04C14.2385 88.2607 9.62231 89.2244 8.06195 89.2244C6.11145 89.2244 5.20123 89.4814 5.20123 90.0596C5.20123 91.2803 9.55731 96.1631 11.0527 96.6128C12.288 96.9983 22.9506 93.5288 24.3809 92.3083C25.1611 91.6016 27.9568 91.6658 27.9568 92.3726C27.9568 92.6938 27.5017 94.1714 26.9816 95.7134C21.9103 109.912 23.9908 120.32 32.833 124.56C36.6039 126.359 37.9042 126.166 40.5699 123.468C43.5606 120.384 44.8609 116.593 45.316 109.141L45.6411 103.037L42.9755 99.7607C41.5451 97.8977 39.7897 96.2273 39.2045 96.0344C38.4243 95.7134 36.864 96.9341 33.4182 100.532C30.5574 103.551 28.6069 105.157 28.3469 104.708C27.8268 103.873 34.7184 91.0876 36.864 88.9033C38.6844 87.1685 43.7557 86.3333 49.087 86.9758C52.0127 87.3613 52.7278 87.2971 53.0529 86.3977C53.7681 84.5986 52.7278 82.2217 50.7123 81.1936C48.6318 80.1016 47.9817 80.1016 43.2355 80.9368ZM38.8795 105.8C39.1395 108.884 38.6194 109.076 34.7184 107.47L32.2479 106.442L34.3934 104.515C37.3191 101.945 38.6194 102.331 38.8795 105.8ZM35.5637 113.767C37.9692 115.951 37.254 119.42 34.3284 119.42C32.963 119.42 30.5574 116.979 30.5574 115.63C30.5574 114.537 32.4429 112.353 33.3531 112.353C33.7432 112.353 34.7184 112.996 35.5637 113.767Z" fill-rule="nonzero" fill="#FFFFFF"/>
		<path id="path" d="M74.7682 85.7554C74.7682 85.948 75.6784 88.5823 76.7187 91.6018C79.0592 98.2192 79.1243 99.3113 77.0438 105.222L75.4183 109.912L77.6939 114.666C79.8394 119.356 81.4648 120.641 82.18 118.264C82.3751 117.686 82.8301 114.859 83.2203 111.968C83.6104 109.141 84.0004 106.25 84.1305 105.543C85.4308 99.0544 85.9509 94.3643 85.6259 93.0793C84.9756 90.5737 74.7682 83.6995 74.7682 85.7554Z" fill-rule="nonzero" fill="#FFFFFF"/>
		<path id="path" d="M234.512 98.6687C233.342 99.7607 234.447 100.789 239.323 103.294C245.11 106.186 245.89 106.378 247.06 104.965C248.101 103.744 246.865 100.532 244.85 99.1826C243.484 98.219 235.357 97.7693 234.512 98.6687Z" fill-rule="nonzero" fill="#FFFFFF"/>
	</g>
</svg>
