<svg width="231.000000" height="57.000000" viewBox="0 0 231 57" fill="none" xmlns="http://www.w3.org/2000/svg" xmlns:xlink="http://www.w3.org/1999/xlink">
	<desc>
			Created with Pixso.
	</desc>
	<defs>
		<clipPath id="clip18_2595">
			<rect id="svg" width="231.000000" height="57.000000" fill="white"/>
		</clipPath>
	</defs>
	<g clip-path="url(#clip18_2595)">
		<path id="path" d="M214.597 13.9909L182.915 13.9909C182.915 13.9909 179.297 14.4023 177.301 14.7881C174.183 16.7301 173.691 16.7811 173.691 16.7811C173.691 16.7811 176.125 10.6343 181.311 5.22168C187.998 -0.183716 192.139 0.039856 192.139 0.039856L230.639 0.039856L214.597 13.9909ZM187.728 41.0958L227.03 41.0958L209.384 56.2427L181.712 56.2427C181.712 56.2427 156.962 53.4561 157.248 30.3336C158.277 7.2135 180.108 0 180.108 0C180.108 0 168.322 6.65344 167.676 21.1658C167.691 39.5464 187.728 41.0958 187.728 41.0958ZM108.722 13.9909C108.722 13.9909 105.104 14.4023 103.108 14.7881C99.9905 16.7301 99.4984 16.7811 99.4984 16.7811C99.4984 16.7811 101.932 10.6343 107.118 5.22168C113.806 -0.183716 117.946 0.039856 117.946 0.039856L156.446 0.039856L140.405 13.9909L108.722 13.9909ZM113.535 41.0958L152.837 41.0958L135.191 56.2427L107.519 56.2427C107.519 56.2427 82.769 53.4561 83.0557 30.3336C84.0848 7.2135 105.915 0 105.915 0C105.915 0 94.1289 6.65344 93.4828 21.1658C93.498 39.5464 113.535 41.0958 113.535 41.0958ZM77.8422 38.3056C76.6599 55.9254 56.1859 56.6413 56.1859 56.6413L0 56.6413L10.4672 0L67.0141 0C67.0141 0 81.7812 -0.519348 81.4516 12.3965C81.8394 24.2717 69.4203 27.5433 69.4203 27.5433C69.4203 27.5433 78.4935 31.0913 77.8422 38.3056ZM15.6807 44.6832L55.3839 44.6832C55.3839 44.6832 59.6702 44.5632 59.7953 39.1028C60.6403 34.3802 56.1859 33.5224 56.1859 33.5224L17.6859 33.5224L15.6807 44.6832ZM60.5974 11.2007L22.0974 11.2007L20.0922 22.3616L58.5922 22.3616C58.5922 22.3616 64.2758 22.5796 64.6078 16.7811C65.677 11.5794 60.5974 11.2007 60.5974 11.2007Z" fill-rule="evenodd" fill="#2A598F"/>
	</g>
</svg>
