<svg width="16.000000" height="16.000000" viewBox="0 0 16 16" fill="none" xmlns="http://www.w3.org/2000/svg" xmlns:xlink="http://www.w3.org/1999/xlink">
	<desc>
			Created with Pixso.
	</desc>
	<defs>
		<clipPath id="clip20_1460">
			<rect id="Newspaper" width="16.000000" height="16.000000" fill="white"/>
		</clipPath>
	</defs>
	<g clip-path="url(#clip20_1460)">
		<path id="path" d="M13.5 3L3.5 3C3.36719 3 3.24023 3.02539 3.11719 3.07617C2.99512 3.12695 2.88672 3.19922 2.79297 3.29297C2.69922 3.38672 2.62695 3.49487 2.57617 3.61743C2.52539 3.73975 2.5 3.86743 2.5 4L2.5 11.5C2.5 11.5664 2.4873 11.6301 2.46191 11.6914C2.43652 11.7527 2.40039 11.8066 2.35352 11.8535C2.30664 11.9004 2.25293 11.9365 2.19141 11.9619C2.12988 11.9873 2.06641 12 2 12C1.93359 12 1.87012 11.9873 1.80859 11.9619C1.74707 11.9365 1.69336 11.9004 1.64648 11.8535C1.59961 11.8066 1.56348 11.7527 1.53809 11.6914C1.5127 11.6301 1.5 11.5664 1.5 11.5L1.5 5.5C1.5 5.43359 1.4873 5.36987 1.46191 5.30859C1.43652 5.24731 1.40039 5.19336 1.35352 5.14648C1.30664 5.09961 1.25293 5.06348 1.19141 5.03809C1.12988 5.0127 1.06641 5 1 5C0.933594 5 0.870117 5.0127 0.808594 5.03809C0.74707 5.06348 0.693359 5.09961 0.646484 5.14648C0.599609 5.19336 0.563477 5.24731 0.538086 5.30859C0.512695 5.36987 0.5 5.43359 0.5 5.5L0.5 11.5068C0.5 11.605 0.510742 11.7024 0.530273 11.7986C0.549805 11.8948 0.578125 11.9883 0.616211 12.0789C0.654297 12.1694 0.700195 12.2554 0.754883 12.3369C0.80957 12.4185 0.87207 12.4939 0.941406 12.563C1.01172 12.6323 1.08691 12.6943 1.16895 12.7485C1.25098 12.803 1.33691 12.8491 1.42773 12.8865C1.51855 12.9241 1.6123 12.9521 1.70801 12.9714C1.80469 12.9905 1.90137 13 2 13L13 13C13.0986 13 13.1963 12.9905 13.293 12.9712C13.3896 12.9519 13.4834 12.9236 13.5742 12.8857C13.665 12.8481 13.751 12.802 13.833 12.7473C13.915 12.6924 13.9912 12.6304 14.0605 12.5605C14.1299 12.491 14.1924 12.4153 14.2471 12.3333C14.3018 12.2515 14.3477 12.165 14.3857 12.074C14.4238 11.9829 14.4521 11.8892 14.4707 11.7927C14.4902 11.696 14.5 11.5984 14.5 11.5L14.5 4C14.5 3.86743 14.4746 3.73975 14.4238 3.61743C14.373 3.49487 14.3008 3.38672 14.207 3.29297C14.1133 3.19922 14.0049 3.12695 13.8828 3.07617C13.7598 3.02539 13.6328 3 13.5 3ZM11 9.5L6 9.5C5.93359 9.5 5.87012 9.4873 5.80859 9.46191C5.74707 9.43652 5.69336 9.40039 5.64648 9.35352C5.59961 9.30664 5.56348 9.25269 5.53809 9.19141C5.5127 9.13013 5.5 9.06641 5.5 9C5.5 8.93359 5.5127 8.86987 5.53809 8.80859C5.56348 8.74731 5.59961 8.69336 5.64648 8.64648C5.69336 8.59961 5.74707 8.56348 5.80859 8.53809C5.87012 8.5127 5.93359 8.5 6 8.5L11 8.5C11.0664 8.5 11.1299 8.5127 11.1914 8.53809C11.2529 8.56348 11.3066 8.59961 11.3535 8.64648C11.4004 8.69336 11.4365 8.74731 11.4619 8.80859C11.4873 8.86987 11.5 8.93359 11.5 9C11.5 9.06641 11.4873 9.13013 11.4619 9.19141C11.4365 9.25269 11.4004 9.30664 11.3535 9.35352C11.3066 9.40039 11.2529 9.43652 11.1914 9.46191C11.1299 9.4873 11.0664 9.5 11 9.5ZM11 7.5L6 7.5C5.93359 7.5 5.87012 7.4873 5.80859 7.46191C5.74707 7.43652 5.69336 7.40039 5.64648 7.35352C5.59961 7.30664 5.56348 7.25269 5.53809 7.19141C5.5127 7.13013 5.5 7.06641 5.5 7C5.5 6.93359 5.5127 6.86987 5.53809 6.80859C5.56348 6.74731 5.59961 6.69336 5.64648 6.64648C5.69336 6.59961 5.74707 6.56348 5.80859 6.53809C5.87012 6.5127 5.93359 6.5 6 6.5L11 6.5C11.0664 6.5 11.1299 6.5127 11.1914 6.53809C11.2529 6.56348 11.3066 6.59961 11.3535 6.64648C11.4004 6.69336 11.4365 6.74731 11.4619 6.80859C11.4873 6.86987 11.5 6.93359 11.5 7C11.5 7.06641 11.4873 7.13013 11.4619 7.19141C11.4365 7.25269 11.4004 7.30664 11.3535 7.35352C11.3066 7.40039 11.2529 7.43652 11.1914 7.46191C11.1299 7.4873 11.0664 7.5 11 7.5Z" fill-rule="nonzero" fill="#2A598F"/>
	</g>
</svg>
