<?xml version="1.0" encoding="UTF-8"?>
<svg width="18px" height="18px" viewBox="0 0 18 18" version="1.1" xmlns="http://www.w3.org/2000/svg" xmlns:xlink="http://www.w3.org/1999/xlink">
    <!-- Generator: Sketch 63.1 (92452) - https://sketch.com -->
    <title>形状 2</title>
    <desc>Created with Sketch.</desc>
    <g id="页面-1" stroke="none" stroke-width="1" fill="none" fill-rule="evenodd" opacity="0.904506138">
        <g id="登录" transform="translate(-1339.000000, -540.000000)" fill="#ADB5BF" fill-rule="nonzero">
            <g id="手机号" transform="translate(1339.000000, 540.000000)">
                <g id="形状-3">
                    <g id="形状-2">
                        <path d="M4.86136711,1.80219308 L6.7074785,4.14966246 C7.00117804,4.52693434 7.00117804,5.07188258 6.74943559,5.44915445 L6.7074785,5.49107354 L5.36485204,7.0420801 L5.57463743,7.41935197 C6.83334975,9.55722587 8.59554699,11.3178279 10.7353579,12.5754008 L11.1129716,12.7849963 L12.413641,11.4855043 L12.4975552,11.4435852 C12.9171259,11.0663133 13.5464821,11.0663133 13.9660529,11.4016661 L16.231735,13.2041872 L16.3576063,13.3299445 C16.7771771,13.7910546 16.7771771,14.4617601 16.3156492,14.8809511 L14.7212803,16.4738767 C13.5884392,17.5637732 9.89621637,15.719333 6.12007943,11.9466143 L5.95225112,11.778938 C2.3019854,8.00621931 0.497831064,4.35925793 1.63067216,3.26936145 L3.30895525,1.59259761 L3.26699818,1.59259761 C3.72852603,1.21532573 4.48375342,1.29916393 4.86136711,1.80219308 Z M2.42785663,0.502701104 C2.42785663,0.544620205 2.38589955,0.544620205 2.38589955,0.544620187 L2.34394248,0.586539288 C2.26002833,0.628458389 2.21807125,0.670377472 2.17611417,0.712296573 L0.665659392,2.26330313 C-1.18045201,4.10774336 0.959358931,8.42541027 5.28093789,12.7430772 L5.57463743,13.0365108 C9.77034516,17.1445823 13.8821387,19.1147798 15.686293,17.3541778 L17.280662,15.7612521 C18.2037177,14.8809511 18.2456748,13.4137827 17.3645761,12.4915626 L17.1967478,12.3238862 L17.1547907,12.2819671 L14.7632373,10.3536887 C13.8401816,9.64106407 12.4975552,9.72490226 11.7003707,10.6052033 L11.0290575,11.3178279 L10.9451433,11.2759088 C9.30881731,10.2279314 7.88227668,8.84460124 6.83334975,7.16783738 L6.79139267,7.0839992 L7.42074883,6.37137457 C8.30184745,5.53299264 8.38576161,4.10774338 7.58857714,3.18552325 L5.74246574,0.87997296 C4.94528127,-0.12608534 3.47678356,-0.293761726 2.42785663,0.502701104 Z" id="形状"></path>
                    </g>
                </g>
            </g>
        </g>
    </g>
</svg>