<svg width="43.000000" height="43.000000" viewBox="0 0 43 43" fill="none" xmlns="http://www.w3.org/2000/svg" xmlns:xlink="http://www.w3.org/1999/xlink">
	<desc>
			Created with Pixso.
	</desc>
	<defs/>
	<path id="Vector" d="M3.58325 16.125L3.58325 12.5417C3.58325 7.16675 7.1665 3.58337 12.5415 3.58337L30.4583 3.58337C35.8333 3.58337 39.4165 7.16675 39.4165 12.5417L39.4165 16.125" stroke="#2A598F" stroke-width="1.500000" stroke-linejoin="round" stroke-linecap="round"/>
	<path id="Vector" d="M3.58325 26.875L3.58325 30.4584C3.58325 35.8334 7.1665 39.4166 12.5415 39.4166L30.4583 39.4166C35.8333 39.4166 39.4165 35.8334 39.4165 30.4584L39.4165 26.875" stroke="#2A598F" stroke-width="1.500000" stroke-linejoin="round" stroke-linecap="round"/>
	<path id="Vector" d="M12.0042 16.5908L21.5 22.0913L30.9241 16.6267" stroke="#2A598F" stroke-width="1.500000" stroke-linejoin="round" stroke-linecap="round"/>
	<path id="Vector" d="" stroke="#2A598F" stroke-width="1.500000" stroke-linejoin="round"/>
	<path id="Vector" d="M13.5449 14.4587C12.2549 15.1754 11.1799 16.985 11.1799 18.472L11.1799 24.5459C11.1799 26.033 12.2371 27.8425 13.5449 28.5592L19.2783 31.7483C20.4966 32.4291 22.5032 32.4291 23.7395 31.7483L29.4729 28.5592C30.7629 27.8425 31.8379 26.033 31.8379 24.5459L31.8379 18.472C31.8379 16.985 30.7808 15.1754 29.4729 14.4587L23.7395 11.2695C22.5032 10.5708 20.4966 10.5708 19.2783 11.2695L13.5449 14.4587Z" stroke="#2A598F" stroke-width="1.500000" stroke-linejoin="round"/>
</svg>
