<svg width="19.000000" height="14.615479" viewBox="0 0 19 14.6155" fill="none" xmlns="http://www.w3.org/2000/svg" xmlns:xlink="http://www.w3.org/1999/xlink">
	<desc>
			Created with Pixso.
	</desc>
	<defs/>
	<path id="path" d="M17.5385 0L1.46154 0C1.05795 0 0.713455 0.142578 0.428078 0.427979C0.142693 0.713379 0 1.05786 0 1.46143L0 13.1538C0 13.5574 0.142693 13.9019 0.428078 14.1873C0.713455 14.4727 1.05795 14.6155 1.46154 14.6155L17.5385 14.6155C17.9421 14.6155 18.2865 14.4727 18.5719 14.1873C18.8573 13.9019 19 13.5574 19 13.1538L19 1.46143C19 1.05786 18.8573 0.713379 18.5719 0.427979C18.2865 0.142578 17.9421 0 17.5385 0ZM3.65385 10.9614C3.65385 11.4487 3.41026 11.6924 2.92308 11.6924C2.4359 11.6924 2.19231 11.4487 2.19231 10.9614L2.19231 3.65381C2.19231 3.16675 2.4359 2.9231 2.92308 2.9231C3.41026 2.9231 3.65385 3.16675 3.65385 3.65381L3.65385 10.9614ZM10.3495 7.32495L9.22048 7.69043L9.91837 8.64966C10.2053 9.04541 10.1507 9.38672 9.75466 9.67334C9.35859 9.96021 9.01732 9.90527 8.73087 9.50903L8.03846 8.55103L7.34149 9.51099C7.05497 9.90674 6.71379 9.96143 6.31796 9.67505C5.92212 9.38843 5.86747 9.04712 6.15399 8.65137L6.85188 7.69214L5.72284 7.3269C5.25971 7.17456 5.10427 6.86694 5.25652 6.40381C5.40876 5.94067 5.71645 5.78516 6.17957 5.9375L7.30769 6.30298L7.30769 5.11548C7.30769 4.62817 7.55128 4.38452 8.03846 4.38452C8.52564 4.38452 8.76923 4.62817 8.76923 5.11548L8.76923 6.30298L9.89735 5.9375C10.3605 5.78516 10.6682 5.94067 10.8204 6.40381C10.9727 6.86694 10.8126 7.17285 10.3495 7.32495ZM16.9264 7.32495L15.7974 7.69043L16.4953 8.64966C16.7818 9.04541 16.7272 9.38647 16.3313 9.6731C15.9355 9.95972 15.5943 9.90503 15.3078 9.50903L14.6154 8.55103L13.9184 9.51099C13.6319 9.90674 13.2907 9.96143 12.8949 9.67505C12.499 9.38843 12.4444 9.04712 12.7309 8.65137L13.4288 7.69214L12.2998 7.3269C11.8366 7.17456 11.6812 6.86694 11.8334 6.40381C11.9857 5.94067 12.2934 5.78516 12.7565 5.9375L13.8846 6.30298L13.8846 5.11548C13.8846 4.62817 14.1282 4.38452 14.6154 4.38452C15.1026 4.38452 15.3462 4.62817 15.3462 5.11548L15.3462 6.30298L16.4743 5.9375C16.9374 5.78516 17.2451 5.94067 17.3973 6.40381C17.5496 6.86694 17.3896 7.17285 16.9264 7.32495Z" fill-rule="nonzero" fill="#555555"/>
</svg>
