<svg width="43.000000" height="43.000000" viewBox="0 0 43 43" fill="none" xmlns="http://www.w3.org/2000/svg" xmlns:xlink="http://www.w3.org/1999/xlink">
	<desc>
			Created with Pixso.
	</desc>
	<defs/>
	<path id="Vector" d="M38.915 34.7942C38.6104 35.4392 38.2161 36.0483 37.6965 36.6217C36.8186 37.5892 35.8511 38.288 34.7583 38.7358C33.6833 39.1838 32.5186 39.4167 31.2644 39.4167C29.437 39.4167 27.4841 38.9867 25.4236 38.1088C23.3633 37.2308 21.3027 36.0483 19.2603 34.5613C17.2 33.0563 15.2471 31.39 13.3838 29.5447C11.5383 27.6813 9.87207 25.7284 8.38501 23.6859C6.91577 21.6434 5.73315 19.6008 4.87329 17.5763C4.01318 15.5338 3.58325 13.5809 3.58325 11.7175C3.58325 10.4993 3.79834 9.33459 4.22827 8.25964C4.6582 7.16675 5.33911 6.16333 6.28857 5.26758C7.4353 4.13879 8.68945 3.58337 10.0154 3.58337C10.5171 3.58337 11.0186 3.69092 11.4666 3.90588C11.9324 4.12085 12.3445 4.44336 12.667 4.90918L16.8237 10.7679C17.1462 11.2158 17.3792 11.6279 17.5403 12.0221C17.7017 12.3983 17.7913 12.7747 17.7913 13.115C17.7913 13.545 17.6658 13.9751 17.415 14.3871C17.1819 14.7992 16.8416 15.2292 16.4116 15.6592L15.0498 17.0746C14.8528 17.2717 14.7632 17.5046 14.7632 17.7913C14.7632 17.9346 14.7812 18.0601 14.8169 18.2034C14.8708 18.3467 14.9246 18.4542 14.9604 18.5618C15.2827 19.153 15.8381 19.9233 16.6265 20.855C17.4329 21.7867 18.2927 22.7363 19.2246 23.6859C20.1919 24.6355 21.1238 25.5134 22.0732 26.3196C23.0049 27.1079 23.7754 27.6455 24.3845 27.9679C24.4741 28.0038 24.5815 28.0575 24.707 28.1113C24.8503 28.165 24.9937 28.183 25.155 28.183C25.4595 28.183 25.6924 28.0754 25.8894 27.8784L27.2512 26.5347C27.699 26.0867 28.1292 25.7463 28.5413 25.5312C28.9534 25.2805 29.3652 25.155 29.8132 25.155C30.1536 25.155 30.512 25.2267 30.9062 25.3879C31.3003 25.5492 31.7124 25.7821 32.1604 26.0867L38.0908 30.2971C38.5566 30.6196 38.8792 30.9958 39.0762 31.4438C39.2554 31.8917 39.3628 32.3396 39.3628 32.8413C39.3628 33.4863 39.2195 34.1492 38.915 34.7942Z" stroke="#2A598F" stroke-width="1.500000"/>
</svg>
