<svg width="19.500000" height="19.500000" viewBox="0 0 19.5 19.5" fill="none" xmlns="http://www.w3.org/2000/svg" xmlns:xlink="http://www.w3.org/1999/xlink">
	<desc>
			Created with Pixso.
	</desc>
	<defs/>
	<path id="path" d="M13.875 9C13.875 9.54712 13.7703 10.0732 13.561 10.5786C13.3517 11.084 13.0536 11.53 12.6668 11.9167C12.28 12.3037 11.8339 12.6016 11.3286 12.811C10.8232 13.0203 10.297 13.125 9.75 13.125C9.20299 13.125 8.6768 13.0203 8.17143 12.811C7.66606 12.6016 7.21998 12.3037 6.83318 11.9167C6.44639 11.53 6.14833 11.084 5.939 10.5786C5.72966 10.0732 5.625 9.54712 5.625 9C5.625 8.45288 5.72966 7.92676 5.939 7.42139C6.14833 6.91602 6.44639 6.46997 6.83318 6.08325C7.21998 5.69629 7.66606 5.39844 8.17143 5.18896C8.6768 4.97974 9.20299 4.875 9.75 4.875C10.2968 4.87573 10.8228 4.98071 11.3278 5.19019C11.8329 5.3999 12.2788 5.698 12.6654 6.08447C13.0521 6.47119 13.3502 6.91699 13.5598 7.42212C13.7693 7.92725 13.8744 8.45312 13.875 9ZM19.5 9.75C19.5 11.043 19.2526 12.2866 18.7578 13.4812C18.263 14.6758 17.5585 15.73 16.6443 16.6443C15.73 17.5586 14.6757 18.2629 13.4812 18.7578C12.2866 19.2527 11.0429 19.5 9.75 19.5C8.45707 19.5 7.21335 19.2527 6.01884 18.7578C4.82432 18.2629 3.76995 17.5586 2.85571 16.6443C1.94147 15.73 1.23696 14.6758 0.742174 13.4812C0.247391 12.2866 0 11.043 0 9.75C0 8.45703 0.247391 7.21338 0.742174 6.0188C1.23696 4.82422 1.94147 3.77002 2.85571 2.85571C3.76995 1.94141 4.82432 1.23706 6.01884 0.742188C7.21335 0.247314 8.45707 0 9.75 0C11.0425 0.00146484 12.2857 0.249756 13.4796 0.744873C14.6734 1.24023 15.7273 1.94482 16.6413 2.85864C17.5552 3.77271 18.2598 4.82666 18.7551 6.02051C19.2503 7.21436 19.4986 8.45752 19.5 9.75ZM18 9.75C17.9988 8.62817 17.7781 7.55127 17.3381 6.51929C16.898 5.4873 16.2736 4.58276 15.4648 3.80518C14.6561 3.02783 13.7274 2.43945 12.679 2.04053C11.6305 1.6416 10.5457 1.46362 9.42469 1.50659C5.00906 1.67725 1.48781 5.35498 1.5 9.77344C1.50438 11.855 2.19938 13.6726 3.585 15.2258C4.13539 14.4277 4.81539 13.7617 5.625 13.228C5.78354 13.1235 5.93447 13.1333 6.07781 13.2581C6.58743 13.699 7.15794 14.0369 7.78936 14.272C8.42078 14.5073 9.07339 14.6248 9.74719 14.6248C10.421 14.6248 11.0736 14.5073 11.705 14.272C12.3364 14.0369 12.9069 13.699 13.4166 13.2581C13.5599 13.1333 13.7108 13.1235 13.8694 13.228C14.68 13.7615 15.361 14.4275 15.9122 15.2258C17.3051 13.6663 18.001 11.8411 18 9.75Z" fill-rule="nonzero" fill="#555555"/>
</svg>
