<svg width="20.000000" height="20.000000" viewBox="0 0 20 20" fill="none" xmlns="http://www.w3.org/2000/svg" xmlns:xlink="http://www.w3.org/1999/xlink">
	<desc>
			Created with Pixso.
	</desc>
	<defs>
		<clipPath id="clip18_1745">
			<rect id="svg" width="20.000000" height="20.000000" fill="white"/>
		</clipPath>
	</defs>
	<g clip-path="url(#clip18_1745)">
		<path id="path" d="M18.7882 9.3374L17.5382 8.0874C17.355 7.90356 17.1337 7.81177 16.8741 7.81177C16.6146 7.81177 16.3933 7.90356 16.2101 8.0874L16.1187 8.17896L11.8218 3.88208L11.9141 3.79053C12.0978 3.60742 12.1897 3.38599 12.1897 3.12646C12.1897 2.86694 12.0978 2.64575 11.9141 2.4624L10.6641 1.2124C10.4808 1.02856 10.2595 0.936768 10 0.936768C9.74048 0.936768 9.51904 1.02856 9.33594 1.2124L4.33594 6.2124C4.1521 6.39575 4.06018 6.61694 4.06018 6.87646C4.06018 7.13599 4.1521 7.35742 4.33594 7.54053L5.58594 8.79053C5.76904 8.97437 5.99048 9.06641 6.25 9.06641C6.50952 9.06641 6.73083 8.97437 6.91406 8.79053L7.00537 8.69849L7.99524 9.6875L2.66711 15.0164C2.37439 15.3406 2.23352 15.7209 2.24463 16.1577C2.25574 16.5945 2.41577 16.9673 2.72461 17.2761C3.03357 17.585 3.40637 17.7449 3.84302 17.7561C4.27966 17.7671 4.66016 17.6265 4.98438 17.3335L10.3125 12.0046L11.3038 12.9961L11.2117 13.0874C11.0278 13.2708 10.9359 13.4919 10.9359 13.7515C10.9359 14.011 11.0278 14.2324 11.2117 14.4155L12.4617 15.6655C12.6449 15.8494 12.8662 15.9414 13.1257 15.9414C13.3853 15.9414 13.6066 15.8494 13.7898 15.6655L18.7898 10.6655C18.9736 10.4824 19.0656 10.261 19.0656 10.0015C19.0656 9.74194 18.972 9.52075 18.7882 9.3374ZM6.02881 8.34619L4.77881 7.09619C4.63135 6.94873 4.63135 6.80127 4.77881 6.65381L9.77881 1.65381C9.92627 1.50635 10.0736 1.50635 10.2211 1.65381L11.4711 2.90381C11.6178 3.05103 11.6178 3.19824 11.4711 3.34521L6.47107 8.34521C6.32385 8.49316 6.17651 8.49341 6.02881 8.34619ZM4.54443 16.8914C4.35034 17.1094 4.10754 17.2227 3.8158 17.2312C3.52417 17.2397 3.27502 17.1409 3.06848 16.9346C2.86194 16.7285 2.76282 16.4795 2.77087 16.1877C2.77893 15.8962 2.89172 15.6531 3.10938 15.4585L8.4375 10.1296L9.87024 11.5625L4.54443 16.8914ZM7.44604 8.25464L11.3796 4.32104L15.6765 8.61792L11.7429 12.5515L7.44604 8.25464ZM18.3461 10.2212L13.3461 15.2212C13.1986 15.3687 13.0513 15.3687 12.9038 15.2212L11.6538 13.9712C11.5071 13.824 11.5071 13.6768 11.6538 13.5298L16.6538 8.52979C16.8013 8.38208 16.9486 8.38208 17.0961 8.52979L18.3461 9.77979C18.4937 9.927 18.4937 10.0737 18.3461 10.2212Z" fill-rule="nonzero" fill="#FFFFFF"/>
	</g>
</svg>
