<svg width="20.000000" height="20.000000" viewBox="0 0 20 20" fill="none" xmlns="http://www.w3.org/2000/svg" xmlns:xlink="http://www.w3.org/1999/xlink">
	<desc>
			Created with Pixso.
	</desc>
	<defs>
		<clipPath id="clip18_1749">
			<rect id="svg" width="20.000000" height="20.000000" fill="white"/>
		</clipPath>
	</defs>
	<g clip-path="url(#clip18_1749)">
		<path id="path" d="M17.7695 13.5938C17.8752 13.7739 17.8376 13.9167 17.657 14.0217L10.157 18.3967C10.0529 18.457 9.94873 18.457 9.84448 18.3967L2.34448 14.0217C2.17603 13.9146 2.14172 13.7747 2.24158 13.6018C2.34155 13.4287 2.4801 13.3887 2.65698 13.4812L10.0007 17.7646L17.3445 13.4812C17.5233 13.3784 17.6649 13.416 17.7695 13.5938ZM17.3438 9.72949L10 14.0132L2.65625 9.72949C2.47925 9.63696 2.34082 9.67725 2.24084 9.8501C2.14087 10.0229 2.17517 10.1631 2.34375 10.2703L9.84375 14.6453C9.94788 14.7053 10.0521 14.7053 10.1562 14.6453L17.6562 10.2703C17.8248 10.1631 17.8591 10.0229 17.7592 9.8501C17.6592 9.67725 17.5208 9.63696 17.3438 9.72949ZM2.1875 6.25C2.18762 6.12988 2.23975 6.03979 2.34375 5.97949L9.84375 1.60449C9.94788 1.54443 10.0521 1.54443 10.1562 1.60449L17.6562 5.97949C17.76 6.03979 17.8119 6.12988 17.8119 6.25C17.8119 6.36987 17.76 6.45996 17.6562 6.52026L10.1562 10.8953C10.0521 10.9553 9.94788 10.9553 9.84375 10.8953L2.34375 6.52026C2.23975 6.46021 2.18762 6.37012 2.1875 6.25ZM3.12036 6.25L10 10.2632L16.8796 6.25L10 2.23657L3.12036 6.25Z" fill-rule="nonzero" fill="#2A598F"/>
	</g>
</svg>
