<svg width="20.000000" height="20.000000" viewBox="0 0 20 20" fill="none" xmlns="http://www.w3.org/2000/svg" xmlns:xlink="http://www.w3.org/1999/xlink">
	<desc>
			Created with Pixso.
	</desc>
	<defs>
		<clipPath id="clip18_1757">
			<rect id="Certificate" width="20.000000" height="20.000000" fill="white"/>
		</clipPath>
	</defs>
	<g clip-path="url(#clip18_1757)">
		<path id="path" d="M19.0625 10C19.0629 9.66406 19.0221 9.33325 18.9404 9.00732C18.8586 8.68164 18.7384 8.37061 18.5796 8.07471C18.4207 7.77881 18.2281 7.50659 18.0018 7.25854C17.7754 7.01025 17.5222 6.79346 17.2421 6.60815C16.9619 6.42261 16.6635 6.27441 16.3466 6.16309C16.0297 6.05176 15.7039 5.98071 15.3694 5.9502C15.0349 5.91968 14.7017 5.93042 14.3699 5.98242C14.038 6.03467 13.7175 6.12646 13.4084 6.25806C13.0994 6.38965 12.8112 6.55713 12.5436 6.76001C12.276 6.96313 12.0374 7.19604 11.8275 7.45825C11.6177 7.7207 11.4431 8.00464 11.3037 8.3103C11.1643 8.61572 11.0645 8.93384 11.0039 9.26416C10.9435 9.59473 10.9242 9.92749 10.9463 10.2627C10.9684 10.5979 11.031 10.9253 11.1343 11.2449C11.2375 11.5645 11.3783 11.8667 11.5565 12.1514C11.7347 12.436 11.9451 12.6948 12.1875 12.9272L12.1875 17.5C12.1874 17.6162 12.2368 17.7048 12.3357 17.7661C12.4346 17.8271 12.5359 17.8318 12.6399 17.7798L15 16.5991L17.3601 17.7798C17.4042 17.8015 17.4508 17.8125 17.5 17.8125C17.7084 17.8125 17.8125 17.7083 17.8125 17.5L17.8125 12.9272C18.6459 12.1301 19.0625 11.1543 19.0625 10ZM11.5625 10C11.5625 9.54419 11.6498 9.10571 11.8242 8.68457C11.9987 8.26343 12.2469 7.8916 12.5693 7.56934C12.8916 7.24707 13.2634 6.99854 13.6846 6.82422C14.1057 6.64966 14.5442 6.5625 15 6.5625C15.4558 6.5625 15.8943 6.64966 16.3154 6.82422C16.7366 6.99854 17.1084 7.24707 17.4307 7.56934C17.7531 7.8916 18.0013 8.26343 18.1758 8.68457C18.3502 9.10571 18.4375 9.54419 18.4375 10C18.4375 10.4558 18.3502 10.8943 18.1758 11.3154C18.0013 11.7366 17.7531 12.1084 17.4307 12.4307C17.1084 12.7529 16.7366 13.0015 16.3154 13.1758C15.8943 13.3503 15.4558 13.4375 15 13.4375C14.5443 13.437 14.1061 13.3494 13.6852 13.1748C13.2643 13.0002 12.8927 12.7517 12.5704 12.4294C12.2483 12.1074 11.9999 11.7358 11.8252 11.3149C11.6506 10.894 11.563 10.4556 11.5625 10ZM17.1875 16.9946L15.1399 15.9702C15.0466 15.9236 14.9534 15.9236 14.8601 15.9702L12.8125 16.9946L12.8125 13.4204C13.4789 13.8484 14.208 14.0625 15 14.0625C15.792 14.0625 16.5211 13.8484 17.1875 13.4204L17.1875 16.9946ZM10.3125 15C10.3125 15.2083 10.2084 15.3125 10 15.3125L3.125 15.3125C2.86609 15.3125 2.64514 15.2209 2.46204 15.0378C2.27905 14.8547 2.1875 14.6338 2.1875 14.375L2.1875 4.375C2.1875 4.11621 2.27905 3.89526 2.46204 3.71216C2.64514 3.52905 2.86609 3.4375 3.125 3.4375L16.875 3.4375C17.1339 3.4375 17.3549 3.52905 17.538 3.71216C17.7209 3.89526 17.8125 4.11621 17.8125 4.375C17.8125 4.58325 17.7084 4.6875 17.5 4.6875C17.2916 4.6875 17.1875 4.58325 17.1875 4.375C17.1875 4.16675 17.0834 4.0625 16.875 4.0625L3.125 4.0625C2.91663 4.0625 2.8125 4.16675 2.8125 4.375L2.8125 14.375C2.8125 14.5833 2.91663 14.6875 3.125 14.6875L10 14.6875C10.2084 14.6875 10.3125 14.7917 10.3125 15ZM9.0625 10.625C9.0625 10.8333 8.95837 10.9375 8.75 10.9375L5.625 10.9375C5.41663 10.9375 5.3125 10.8333 5.3125 10.625C5.3125 10.4167 5.41663 10.3125 5.625 10.3125L8.75 10.3125C8.95837 10.3125 9.0625 10.4167 9.0625 10.625ZM9.0625 8.125C9.0625 8.33325 8.95837 8.4375 8.75 8.4375L5.625 8.4375C5.41663 8.4375 5.3125 8.33325 5.3125 8.125C5.3125 7.91675 5.41663 7.8125 5.625 7.8125L8.75 7.8125C8.95837 7.8125 9.0625 7.91675 9.0625 8.125Z" fill-rule="nonzero" fill="#FFFFFF"/>
	</g>
</svg>
