<svg width="20.000000" height="20.000000" viewBox="0 0 20 20" fill="none" xmlns="http://www.w3.org/2000/svg" xmlns:xlink="http://www.w3.org/1999/xlink">
	<desc>
			Created with Pixso.
	</desc>
	<defs>
		<clipPath id="clip63_969">
			<rect id="svg" width="20.000000" height="20.000000" fill="white"/>
		</clipPath>
	</defs>
	<g clip-path="url(#clip63_969)">
		<path id="path" d="M17.6758 5.19849L17.1094 4.86963C17.2207 4.53979 17.2207 4.21021 17.1094 3.88037L17.679 3.55151C17.8474 3.44434 17.8817 3.30444 17.7819 3.13135C17.6819 2.9585 17.5433 2.91846 17.3665 3.01099L16.7953 3.33984C16.5647 3.07886 16.2787 2.91357 15.9375 2.84375L15.9375 2.1875C15.9375 1.97925 15.8334 1.875 15.625 1.875C15.4166 1.875 15.3125 1.97925 15.3125 2.1875L15.3125 2.84375C14.9725 2.91406 14.6876 3.07959 14.4578 3.33984L13.8867 3.01099C13.7034 2.89429 13.5573 2.93018 13.4485 3.11816C13.3397 3.3064 13.3817 3.45093 13.5742 3.55151L14.1406 3.88037C14.0293 4.21021 14.0293 4.53979 14.1406 4.86963L13.571 5.19849C13.4331 5.27856 13.3848 5.39551 13.426 5.54956C13.4674 5.70386 13.5677 5.78101 13.7273 5.78125C13.7833 5.78149 13.8353 5.76733 13.8835 5.73901L14.4547 5.41016C14.6853 5.67114 14.9713 5.83643 15.3125 5.90625L15.3125 6.5625C15.3125 6.77075 15.4166 6.875 15.625 6.875C15.8334 6.875 15.9375 6.77075 15.9375 6.5625L15.9375 5.90625C16.2775 5.83594 16.5624 5.67041 16.7922 5.41016L17.3633 5.73901C17.4115 5.76733 17.4636 5.78149 17.5195 5.78125C17.6791 5.78101 17.7795 5.70386 17.8208 5.54956C17.8622 5.39551 17.8138 5.27856 17.6758 5.19849ZM15.625 5.3125C15.3661 5.3125 15.1451 5.22095 14.962 5.03784C14.7791 4.85474 14.6875 4.63379 14.6875 4.375C14.6875 4.11621 14.7791 3.89526 14.962 3.71216C15.1451 3.52905 15.3661 3.4375 15.625 3.4375C15.8839 3.4375 16.1049 3.52905 16.288 3.71216C16.4709 3.89526 16.5625 4.11621 16.5625 4.375C16.5625 4.63379 16.4709 4.85474 16.288 5.03784C16.1049 5.22095 15.8839 5.3125 15.625 5.3125ZM17.3438 8.44214C17.1388 8.47681 17.0535 8.59668 17.0875 8.80151C17.1538 9.19824 17.1871 9.59766 17.1875 10C17.1888 11.9788 16.4901 13.6682 15.0914 15.0679C14.2854 13.7205 13.1262 12.835 11.614 12.4116C12.0687 12.1699 12.45 11.8423 12.7574 11.4292C13.0649 11.0161 13.2693 10.5571 13.3705 10.052C13.4717 9.54712 13.46 9.04468 13.3353 8.54492C13.2107 8.04517 12.9852 7.59619 12.6587 7.19775C12.3323 6.79956 11.9363 6.49023 11.4708 6.26978C11.0052 6.04932 10.515 5.93921 10 5.93921C9.48499 5.93921 8.99475 6.04932 8.52917 6.26978C8.06372 6.49023 7.66772 6.79956 7.34131 7.19775C7.01477 7.59619 6.78931 8.04517 6.66467 8.54492C6.54004 9.04468 6.52832 9.54712 6.62952 10.052C6.73071 10.5571 6.93506 11.0161 7.24255 11.4292C7.55005 11.8423 7.93115 12.1699 8.38599 12.4116C6.87378 12.835 5.7146 13.7205 4.90857 15.0679C3.88538 14.0388 3.23352 12.8125 2.95312 11.3887C2.67273 9.9646 2.81104 8.58276 3.36768 7.24243C3.92444 5.90234 4.80627 4.82935 6.01306 4.02319C7.21985 3.21704 8.54883 2.81348 10 2.8125C10.4022 2.8125 10.8016 2.8457 11.1985 2.91162C11.4023 2.94385 11.5212 2.85815 11.5554 2.65454C11.5895 2.45093 11.5048 2.3313 11.3015 2.29541C10.7604 2.20459 10.2156 2.17139 9.66736 2.19556C9.11902 2.21973 8.57935 2.30078 8.04822 2.43896C7.51709 2.5769 7.0061 2.7688 6.5155 3.01465C6.0249 3.2605 5.56531 3.55493 5.13672 3.89771C4.70813 4.24048 4.32007 4.62427 3.97241 5.04883C3.62488 5.47339 3.32532 5.92969 3.07397 6.41772C2.82263 6.90552 2.625 7.41406 2.48096 7.9436C2.33691 8.47314 2.24976 9.01196 2.21936 9.56006C2.18896 10.1079 2.21606 10.6531 2.30078 11.1953C2.38538 11.7375 2.52563 12.2649 2.72156 12.7776C2.91748 13.2903 3.16467 13.7766 3.46326 14.2373C3.76172 14.6978 4.1051 15.1221 4.49316 15.51C4.8811 15.8979 5.30542 16.2415 5.76587 16.54C6.22644 16.8384 6.71289 17.0857 7.22559 17.2815C7.73828 17.4775 8.26562 17.6177 8.80786 17.7024C9.3501 17.7871 9.89514 17.8142 10.4431 17.7837C10.9911 17.7534 11.5299 17.6663 12.0594 17.5222C12.589 17.3782 13.0977 17.1804 13.5856 16.9292C14.0734 16.6777 14.5297 16.3782 14.9543 16.0308C15.3789 15.6831 15.7627 15.2949 16.1055 14.8665C16.4482 14.438 16.7426 13.9783 16.9884 13.4875C17.2343 12.9971 17.4263 12.4861 17.5642 11.9548C17.7023 11.4238 17.7834 10.884 17.8076 10.3357C17.8318 9.7876 17.7986 9.24292 17.7078 8.70166C17.6749 8.49097 17.5536 8.40454 17.3438 8.44214ZM7.1875 9.375C7.1875 9.00195 7.25891 8.64331 7.40161 8.29858C7.54431 7.9541 7.74756 7.6499 8.01123 7.38623C8.27502 7.12256 8.5791 6.91943 8.92371 6.77661C9.26831 6.63379 9.62708 6.5625 10 6.5625C10.3729 6.5625 10.7317 6.63379 11.0763 6.77661C11.4209 6.91943 11.725 7.12256 11.9888 7.38623C12.2524 7.6499 12.4557 7.9541 12.5984 8.29858C12.7411 8.64331 12.8125 9.00195 12.8125 9.375C12.8125 9.74805 12.7411 10.1067 12.5984 10.4514C12.4557 10.7959 12.2524 11.1001 11.9888 11.3638C11.725 11.6274 11.4209 11.8306 11.0763 11.9734C10.7317 12.1162 10.3729 12.1875 10 12.1875C9.62708 12.1875 9.26831 12.1162 8.92371 11.9734C8.5791 11.8306 8.27502 11.6274 8.01123 11.3638C7.74756 11.1001 7.54431 10.7959 7.40161 10.4514C7.25891 10.1067 7.1875 9.74805 7.1875 9.375ZM5.38049 15.5015C5.85242 14.6704 6.50134 14.0142 7.32751 13.5332C8.15356 13.0522 9.04456 12.8118 10.0004 12.8118C10.9563 12.8118 11.8473 13.0522 12.6733 13.5332C13.4994 14.0142 14.1484 14.6704 14.6204 15.5015C13.9738 16.0459 13.2534 16.4631 12.4594 16.7529C11.6653 17.0427 10.8457 17.1875 10.0004 17.1875C9.15515 17.1875 8.33545 17.0427 7.54138 16.7529C6.74731 16.4631 6.0271 16.0459 5.38049 15.5015Z" fill-rule="nonzero" fill="#2A598F"/>
	</g>
</svg>
