<svg width="20.000000" height="20.000000" viewBox="0 0 20 20" fill="none" xmlns="http://www.w3.org/2000/svg" xmlns:xlink="http://www.w3.org/1999/xlink">
	<desc>
			Created with Pixso.
	</desc>
	<defs>
		<clipPath id="clip63_971">
			<rect id="svg" width="20.000000" height="20.000000" fill="white"/>
		</clipPath>
	</defs>
	<g clip-path="url(#clip63_971)">
		<path id="path" d="M14.5148 11.5952L12.0148 10.3452C11.9069 10.2915 11.8027 10.2981 11.7023 10.3647L10.4023 11.2319C9.66626 10.8792 9.1217 10.3345 8.76868 9.59839L9.63586 8.29834C9.70276 8.198 9.70923 8.09399 9.6554 7.98584L8.4054 5.48584C8.3479 5.37012 8.25439 5.31226 8.125 5.3125C7.75208 5.3125 7.39331 5.38379 7.04871 5.52661C6.7041 5.66943 6.40002 5.87256 6.13623 6.13623C5.87256 6.3999 5.66931 6.7041 5.52661 7.04858C5.38379 7.39331 5.3125 7.75195 5.3125 8.125C5.31348 8.99487 5.48059 9.83179 5.81384 10.6353C6.14722 11.4387 6.62146 12.1482 7.23669 12.7634C7.85181 13.3784 8.56116 13.8528 9.36475 14.186C10.1682 14.5195 11.005 14.6865 11.875 14.6875C12.2479 14.6875 12.6067 14.6162 12.9513 14.4734C13.2959 14.3306 13.6 14.1274 13.8638 13.8638C14.1274 13.6001 14.3307 13.2959 14.4734 12.9514C14.6161 12.6067 14.6875 12.248 14.6875 11.875C14.6876 11.7461 14.63 11.6531 14.5148 11.5952ZM11.875 14.0625C11.0879 14.0618 10.3308 13.9104 9.60376 13.6089C8.87671 13.3074 8.23499 12.8782 7.67834 12.3215C7.12183 11.7651 6.69275 11.1233 6.39111 10.3962C6.08948 9.66919 5.93835 8.91211 5.9375 8.125C5.93738 7.55762 6.12915 7.0647 6.51257 6.64624C6.89612 6.22803 7.37061 5.99438 7.93591 5.94531L9.01404 8.10229L8.15466 9.39453C8.09265 9.48682 8.08276 9.58447 8.125 9.6875C8.55676 10.7141 9.28589 11.4431 10.3125 11.875C10.4155 11.9177 10.5134 11.9082 10.6062 11.8462L11.8984 10.9868L14.0554 12.0649C14.0062 12.6301 13.7723 13.1045 13.3539 13.488C12.9354 13.8713 12.4425 14.0627 11.875 14.0625ZM10 2.1875C9.31995 2.18726 8.65125 2.27466 7.99402 2.44897C7.33667 2.62354 6.71289 2.87939 6.12244 3.2168C5.53198 3.5542 4.99475 3.96191 4.51074 4.43945C4.02673 4.91724 3.61218 5.44897 3.26697 6.03491C2.92188 6.62085 2.65771 7.24146 2.47461 7.89624C2.2915 8.55127 2.19556 9.21875 2.18665 9.89868C2.17786 10.5786 2.25647 11.2483 2.42261 11.9077C2.58862 12.5674 2.83655 13.1943 3.16638 13.7891L2.23669 16.5774C2.1145 16.9438 2.18994 17.2637 2.46313 17.5369C2.73633 17.8101 3.05615 17.8855 3.42261 17.7632L6.21094 16.8335C6.73242 17.1226 7.27979 17.3489 7.85315 17.5125C8.42651 17.676 9.01086 17.7729 9.60632 17.8027C10.2018 17.8325 10.793 17.7947 11.3798 17.6892C11.9666 17.5837 12.5338 17.4133 13.0815 17.178C13.6294 16.9426 14.1434 16.6484 14.6239 16.2952C15.1044 15.9421 15.5387 15.5393 15.9269 15.0869C16.3151 14.6343 16.6471 14.1438 16.923 13.6152C17.1989 13.0869 17.4115 12.5339 17.5609 11.9568C17.7102 11.3796 17.7924 10.793 17.8074 10.1968C17.8224 9.60083 17.7699 9.01099 17.6499 8.42676C17.5298 7.84277 17.3453 7.28003 17.0964 6.73828C16.8474 6.19653 16.5405 5.68994 16.1757 5.21826C15.8107 4.74683 15.3972 4.32275 14.9352 3.9458C14.4733 3.56909 13.9746 3.24927 13.4393 2.98657C12.9042 2.72388 12.3462 2.52515 11.7654 2.39014C11.1847 2.25537 10.5962 2.18774 10 2.1875ZM10 17.1875C8.71387 17.188 7.51416 16.8662 6.40076 16.2227C6.35242 16.1948 6.30029 16.1807 6.24451 16.1804C6.21057 16.1804 6.17749 16.186 6.14526 16.1968L3.22498 17.1704C3.10278 17.2109 2.99622 17.1858 2.90515 17.0947C2.81409 17.0037 2.78894 16.8972 2.82971 16.7749L3.8031 13.8547C3.83289 13.7656 3.82434 13.6804 3.77734 13.5991C3.51453 13.145 3.30396 12.6675 3.14575 12.1672C2.98743 11.6667 2.88525 11.155 2.83911 10.6323C2.79297 10.1094 2.80383 9.58789 2.87195 9.06738C2.94006 8.54712 3.06372 8.04028 3.2428 7.54688C3.422 7.05347 3.65234 6.58545 3.93408 6.14258C4.2157 5.69971 4.54199 5.29272 4.91284 4.92114C5.28369 4.5498 5.69031 4.2229 6.13281 3.94067C6.57532 3.65845 7.04309 3.42749 7.53613 3.24756C8.02917 3.06763 8.53589 2.94336 9.05615 2.87451C9.57654 2.80566 10.0981 2.79395 10.621 2.8396C11.1438 2.88501 11.6556 2.98633 12.1562 3.14404C12.6569 3.30151 13.1345 3.51147 13.5892 3.77344C14.0438 4.03564 14.4647 4.34399 14.8519 4.69849C15.239 5.05273 15.5833 5.44482 15.8844 5.87476C16.1857 6.30444 16.4369 6.76172 16.6379 7.24658C16.839 7.73145 16.9852 8.23218 17.0765 8.74902C17.1678 9.26587 17.202 9.78662 17.1793 10.311C17.1565 10.8354 17.0773 11.3513 16.9417 11.8582C16.8059 12.3652 16.6169 12.8516 16.3748 13.3174C16.1326 13.783 15.8428 14.2168 15.5055 14.6189C15.1683 15.0212 14.7915 15.3821 14.3752 15.7017C13.959 16.0212 13.5131 16.292 13.0375 16.5139C12.5619 16.7356 12.068 16.9033 11.5557 17.0171C11.0433 17.1306 10.5248 17.1875 10 17.1875Z" fill-rule="nonzero" fill="#2A598F"/>
	</g>
</svg>
