<svg width="16.000000" height="16.000000" viewBox="0 0 16 16" fill="none" xmlns="http://www.w3.org/2000/svg" xmlns:xlink="http://www.w3.org/1999/xlink">
	<desc>
			Created with Pixso.
	</desc>
	<defs>
		<clipPath id="clip18_2643">
			<rect id="svg" width="16.000000" height="16.000000" fill="white"/>
		</clipPath>
	</defs>
	<g clip-path="url(#clip18_2643)">
		<path id="path" d="M2.75 3.5L2.75 12.5C2.75 12.6666 2.66666 12.75 2.5 12.75C2.33334 12.75 2.25 12.6666 2.25 12.5L2.25 3.5C2.25 3.33337 2.33334 3.25 2.5 3.25C2.66666 3.25 2.75 3.33337 2.75 3.5ZM8.32501 7.14441L6.75 7.65564L6.75 6C6.75 5.83337 6.66666 5.75 6.5 5.75C6.33334 5.75 6.25 5.83337 6.25 6L6.25 7.65564L4.67499 7.14441C4.51645 7.0929 4.41147 7.14648 4.35999 7.30505C4.30853 7.4635 4.36209 7.56848 4.52063 7.62L6.09561 8.13123L5.125 9.47119C5.02048 9.60706 5.03757 9.72534 5.17618 9.82605C5.31482 9.92676 5.43256 9.90637 5.52939 9.76501L6.5 8.42566L7.47311 9.76501C7.52307 9.83386 7.59058 9.86816 7.67563 9.86816C7.77765 9.86792 7.85178 9.82239 7.89801 9.73145C7.94427 9.6405 7.93744 9.55383 7.8775 9.47119L6.90439 8.13123L8.47937 7.62C8.63791 7.56848 8.69147 7.4635 8.63998 7.30505C8.58853 7.14648 8.48355 7.0929 8.32501 7.14441ZM14.6375 7.30505C14.5862 7.14856 14.4821 7.09497 14.325 7.14441L12.75 7.65564L12.75 6C12.75 5.83337 12.6667 5.75 12.5 5.75C12.3333 5.75 12.25 5.83337 12.25 6L12.25 7.65564L10.675 7.14441C10.5164 7.0929 10.4115 7.14648 10.36 7.30505C10.3085 7.4635 10.3621 7.56848 10.5206 7.62L12.0956 8.13123L11.125 9.47119C11.0205 9.60706 11.0376 9.72534 11.1762 9.82605C11.3148 9.92676 11.4326 9.90637 11.5294 9.76501L12.5 8.42566L13.4731 9.76501C13.5231 9.83386 13.5906 9.86816 13.6756 9.86816C13.7776 9.86792 13.8518 9.82239 13.898 9.73145C13.9443 9.6405 13.9374 9.55383 13.8775 9.47119L12.9044 8.13123L14.4794 7.62C14.6379 7.5686 14.689 7.4635 14.6375 7.30505Z" fill-rule="nonzero" fill="#024099"/>
	</g>
</svg>
