<svg width="16.000000" height="16.000000" viewBox="0 0 16 16" fill="none" xmlns="http://www.w3.org/2000/svg" xmlns:xlink="http://www.w3.org/1999/xlink">
	<desc>
			Created with Pixso.
	</desc>
	<defs>
		<clipPath id="clip19_1054">
			<rect id="svg" width="16.000000" height="16.000000" fill="white"/>
		</clipPath>
	</defs>
	<g clip-path="url(#clip19_1054)">
		<path id="path" d="M8 1.75C7.1712 1.75 6.37393 1.90857 5.60822 2.22571C4.84253 2.54297 4.16663 2.99451 3.5806 3.58057C2.99454 4.16663 2.54291 4.84253 2.22574 5.60828C1.90857 6.3739 1.75 7.17114 1.75 8C1.75 8.82886 1.90857 9.6261 2.22574 10.3917C2.54291 11.1575 2.99454 11.8334 3.5806 12.4194C4.16663 13.0055 4.84253 13.457 5.60822 13.7743C6.37393 14.0914 7.1712 14.25 8 14.25C8.8288 14.25 9.62607 14.0914 10.3918 13.7743C11.1575 13.457 11.8334 13.0055 12.4194 12.4194C13.0055 11.8334 13.4571 11.1575 13.7742 10.3917C14.0914 9.6261 14.25 8.82886 14.25 8C14.2491 7.17151 14.0899 6.37463 13.7724 5.60925C13.4549 4.84399 13.0033 4.16846 12.4174 3.58264C11.8315 2.9967 11.156 2.54504 10.3907 2.22754C9.62543 1.91016 8.82852 1.75085 8 1.75ZM4.30438 12.4012C4.68195 11.7365 5.20114 11.2117 5.86194 10.827C6.52271 10.4424 7.23541 10.25 8 10.25C8.76459 10.25 9.47729 10.4424 10.1381 10.827C10.7989 11.2117 11.3181 11.7365 11.6956 12.4012C11.1784 12.8368 10.6022 13.1704 9.96701 13.4022C9.33185 13.634 8.67618 13.75 8 13.75C7.32382 13.75 6.66815 13.634 6.03299 13.4022C5.3978 13.1704 4.82159 12.8368 4.30438 12.4012ZM12.0731 12.0543C11.4283 10.9763 10.501 10.2679 9.29126 9.92932C9.65503 9.73596 9.95993 9.47388 10.206 9.14343C10.452 8.81287 10.6154 8.44568 10.6964 8.04163C10.7773 7.6377 10.768 7.23572 10.6683 6.83594C10.5686 6.43616 10.3882 6.07703 10.127 5.7583C9.86584 5.43958 9.54904 5.19214 9.17664 5.01587C8.80423 4.83948 8.41202 4.75134 8 4.75134C7.58798 4.75134 7.19577 4.83948 6.82336 5.01587C6.45096 5.19214 6.13416 5.43958 5.87302 5.7583C5.61185 6.07703 5.4314 6.43616 5.33173 6.83594C5.23203 7.23572 5.22266 7.6377 5.30359 8.04163C5.38455 8.44568 5.54803 8.81287 5.79404 9.14343C6.04007 9.47388 6.34497 9.73596 6.70874 9.92932C5.49902 10.2679 4.57172 10.9763 3.92688 12.0543C3.3891 11.5146 2.97495 10.8927 2.68442 10.1884C2.39389 9.48401 2.24908 8.75085 2.25 7.98889C2.25092 7.22705 2.39746 6.49426 2.68967 5.79065C2.98187 5.08691 3.39749 4.46594 3.93655 3.92749C4.47562 3.38904 5.09717 2.97412 5.80115 2.68286C6.50516 2.39148 7.2381 2.24573 8 2.24573C8.7619 2.24573 9.49484 2.39148 10.1989 2.68286C10.9028 2.97412 11.5244 3.38904 12.0634 3.92749C12.6025 4.46594 13.0182 5.08691 13.3103 5.79065C13.6025 6.49426 13.7491 7.22705 13.75 7.98889C13.7509 8.75085 13.6061 9.48401 13.3156 10.1884C13.0251 10.8927 12.6109 11.5146 12.0731 12.0543ZM8 9.75C7.70163 9.75 7.41461 9.69287 7.13898 9.57874C6.86331 9.4646 6.62 9.302 6.409 9.09094C6.19803 8.88 6.03546 8.63672 5.92126 8.36108C5.8071 8.08533 5.75 7.79834 5.75 7.5C5.75 7.20166 5.8071 6.91467 5.92126 6.63892C6.03546 6.36328 6.19803 6.12 6.409 5.90906C6.62 5.698 6.86331 5.5354 7.13898 5.42126C7.41461 5.30713 7.70163 5.25 8 5.25C8.29837 5.25 8.58539 5.30713 8.86102 5.42126C9.13669 5.5354 9.38 5.698 9.591 5.90906C9.80197 6.12 9.96454 6.36328 10.0787 6.63892C10.1929 6.91467 10.25 7.20166 10.25 7.5C10.25 7.79834 10.1929 8.08533 10.0787 8.36108C9.96454 8.63672 9.80197 8.88 9.591 9.09094C9.38 9.302 9.13669 9.4646 8.86105 9.57874C8.58539 9.69287 8.29837 9.75 8 9.75Z" fill-rule="nonzero" fill="#024099"/>
	</g>
</svg>
